<svg xmlns="http://www.w3.org/2000/svg" xmlns:xlink="http://www.w3.org/1999/xlink" id="svg" version="1.1" width="400" height="400" viewBox="0, 0, 400,400"><g id="svgg"><path id="path0" d="M74.308 20.079 C 70.354 21.130,69.605 23.585,69.602 35.495 L 69.600 44.791 68.050 45.038 C 64.056 45.677,62.002 48.084,62.001 52.126 C 62.000 55.279,62.404 55.888,68.338 61.675 C 68.634 61.964,70.884 64.207,73.338 66.661 C 78.385 71.705,78.677 71.831,84.684 71.530 C 88.420 71.344,89.773 70.740,91.384 68.541 C 92.053 67.628,93.003 66.688,93.497 66.451 C 93.990 66.214,94.890 65.306,95.497 64.432 C 96.103 63.559,97.050 62.648,97.600 62.407 C 98.150 62.167,99.115 61.212,99.744 60.285 C 100.373 59.358,101.453 58.239,102.144 57.798 C 107.335 54.483,105.098 46.194,98.700 45.035 L 97.200 44.764 97.200 36.002 C 97.200 20.211,96.653 19.572,83.200 19.644 C 79.130 19.665,75.129 19.861,74.308 20.079 M67.505 78.283 C 68.002 78.379,68.722 78.375,69.105 78.275 C 69.487 78.175,69.080 78.096,68.200 78.101 C 67.320 78.105,67.007 78.187,67.505 78.283 M98.839 78.405 C 102.302 78.991,103.712 80.079,104.647 82.887 C 105.172 84.465,105.200 84.489,105.004 83.200 C 104.582 80.431,101.407 77.948,98.415 78.047 C 97.088 78.091,97.115 78.114,98.839 78.405 M63.241 80.214 C 62.559 80.992,62.001 81.847,62.001 82.114 C 62.002 82.381,62.347 82.036,62.767 81.347 C 63.188 80.657,63.947 79.802,64.455 79.447 C 64.963 79.091,65.177 78.800,64.930 78.800 C 64.684 78.800,63.924 79.436,63.241 80.214 M61.452 83.700 C 61.319 84.195,61.208 87.426,61.205 90.880 C 61.201 95.611,61.071 97.239,60.678 97.480 C 60.391 97.656,59.643 98.484,59.015 99.320 C 58.388 100.156,57.122 101.281,56.202 101.820 L 54.530 102.800 41.165 102.807 C 18.563 102.819,17.349 103.167,11.400 111.351 C 7.701 116.440,7.239 118.092,7.213 126.327 C 7.201 130.135,7.120 130.558,6.169 131.805 C 3.267 135.610,3.039 140.574,3.035 200.000 C 3.032 259.015,3.275 264.390,6.110 268.123 C 7.002 269.297,7.099 269.869,7.313 275.200 C 7.573 281.691,8.237 284.537,9.837 286.023 C 10.416 286.561,11.581 288.013,12.427 289.252 C 16.053 294.562,18.779 296.266,24.536 296.824 C 26.578 297.021,85.744 297.184,158.200 297.191 L 288.200 297.203 289.850 298.302 C 290.757 298.906,292.147 300.250,292.939 301.290 L 294.379 303.179 294.501 309.290 L 294.622 315.400 294.711 309.254 L 294.800 303.107 293.360 301.145 C 292.567 300.066,291.140 298.647,290.188 297.991 L 288.456 296.800 169.328 296.760 C 103.808 296.738,50.650 296.576,51.200 296.400 L 52.200 296.080 51.125 296.040 L 50.050 296.000 49.961 285.900 C 49.845 272.752,49.845 127.248,49.961 114.100 L 50.050 104.000 51.125 103.960 L 52.200 103.920 51.200 103.620 C 50.442 103.392,50.879 103.260,53.000 103.074 C 56.797 102.741,57.169 102.673,56.966 102.345 C 56.869 102.189,57.294 101.703,57.910 101.264 C 58.525 100.826,59.281 99.996,59.589 99.420 C 59.915 98.811,60.379 98.460,60.696 98.581 C 61.005 98.700,61.131 98.612,60.986 98.378 C 60.846 98.151,60.911 97.748,61.131 97.482 C 61.431 97.121,62.031 82.797,61.747 82.800 C 61.717 82.800,61.585 83.205,61.452 83.700 M105.289 90.746 L 105.200 96.893 106.640 98.855 C 107.433 99.934,108.860 101.353,109.812 102.009 L 111.544 103.200 230.672 103.240 C 296.192 103.262,349.350 103.424,348.800 103.600 L 347.800 103.920 348.875 103.960 L 349.950 104.000 350.039 114.100 C 350.155 127.248,350.155 272.752,350.039 285.900 L 349.950 296.000 348.875 296.040 L 347.800 296.080 348.800 296.380 C 349.558 296.608,349.121 296.740,347.000 296.926 C 343.203 297.259,342.831 297.327,343.034 297.655 C 343.131 297.811,342.706 298.297,342.090 298.736 C 341.475 299.174,340.719 300.004,340.411 300.580 C 340.085 301.189,339.621 301.540,339.304 301.419 C 338.995 301.300,338.869 301.388,339.014 301.622 C 339.154 301.849,339.089 302.252,338.869 302.518 C 338.647 302.784,338.409 306.166,338.334 310.089 C 338.260 313.988,338.322 316.868,338.472 316.489 C 338.621 316.110,338.756 312.884,338.772 309.320 C 338.794 304.318,338.924 302.767,339.342 302.520 C 339.639 302.344,340.089 301.807,340.341 301.327 C 340.593 300.847,341.637 299.767,342.662 298.927 L 344.525 297.400 360.962 297.151 C 381.634 296.839,382.632 296.553,387.305 289.600 C 387.970 288.610,389.141 287.139,389.908 286.331 C 391.801 284.336,392.421 281.781,392.690 274.872 C 392.822 271.473,393.095 268.953,393.363 268.672 C 396.680 265.197,396.960 259.861,396.962 200.000 C 396.964 140.008,396.712 135.160,393.395 131.200 C 393.071 130.813,392.821 128.679,392.691 125.200 C 392.414 117.741,391.976 116.076,389.563 113.318 C 388.483 112.085,387.600 110.925,387.600 110.741 C 387.600 109.716,382.892 105.221,380.864 104.311 C 377.668 102.875,372.735 102.822,241.800 102.809 L 111.800 102.797 110.108 101.674 C 109.177 101.056,107.787 99.744,107.018 98.758 L 105.622 96.965 105.500 90.783 L 105.378 84.600 105.289 90.746 M78.010 142.409 C 75.065 143.102,74.508 145.266,75.034 153.985 C 75.227 157.183,75.358 162.905,75.325 166.700 C 75.267 173.382,75.251 185.234,75.280 199.900 C 75.287 203.805,75.229 210.510,75.149 214.800 C 74.862 230.261,80.189 243.133,89.977 250.627 C 107.576 264.102,137.858 257.246,144.970 238.177 C 149.474 226.100,149.568 225.923,152.300 224.498 C 155.943 222.598,155.847 222.337,149.073 215.700 C 141.980 208.750,141.115 208.787,133.537 216.365 C 127.892 222.010,127.719 222.527,130.645 224.973 C 132.983 226.927,132.919 228.254,130.295 232.264 C 120.982 246.494,101.008 245.167,93.216 229.800 L 91.999 227.400 91.625 215.400 C 91.419 208.800,91.311 190.122,91.384 173.894 C 91.535 140.611,91.765 143.031,88.385 142.379 C 86.169 141.952,79.877 141.970,78.010 142.409 M162.600 142.977 C 144.980 147.070,134.181 161.328,133.323 181.632 C 132.942 190.645,133.421 191.200,141.600 191.200 C 149.801 191.200,150.000 190.974,150.000 181.629 C 150.000 173.741,150.340 171.923,152.452 168.509 C 161.304 154.206,180.826 154.251,189.174 168.594 C 191.257 172.173,191.239 172.855,189.000 175.063 C 186.369 177.656,186.448 177.861,192.349 183.749 C 199.818 191.201,200.704 191.183,208.368 183.415 C 213.768 177.942,213.936 177.316,210.496 175.472 C 209.339 174.852,208.143 173.862,207.839 173.272 C 207.144 171.927,203.200 161.742,203.200 161.294 C 203.200 160.507,199.383 154.835,197.672 153.079 C 193.763 149.066,189.525 146.424,183.845 144.456 L 178.600 142.639 171.800 142.529 C 167.049 142.453,164.277 142.587,162.600 142.977 M280.026 142.814 C 264.559 146.038,256.200 154.651,251.116 172.600 C 250.163 175.965,249.648 187.086,250.360 188.919 C 251.044 190.680,252.862 191.200,258.327 191.200 C 266.655 191.200,266.530 191.359,266.807 180.400 C 267.036 171.314,266.893 171.872,270.310 166.678 C 276.489 157.286,289.899 155.141,299.914 161.941 C 302.722 163.849,303.614 164.851,305.969 168.749 C 308.358 172.703,308.400 173.360,308.573 209.400 C 308.731 242.359,308.900 240.276,305.905 242.282 C 302.911 244.288,303.137 244.925,308.798 250.430 C 316.412 257.835,317.060 257.836,324.492 250.459 C 330.487 244.509,330.578 244.250,327.411 242.224 C 324.673 240.473,324.583 240.157,324.665 232.600 C 324.726 226.976,324.745 216.717,324.726 200.100 C 324.722 196.195,324.764 189.310,324.821 184.800 C 325.040 167.463,317.560 152.427,305.764 146.495 C 298.936 143.061,287.017 141.356,280.026 142.814 M193.790 209.358 C 190.457 210.811,190.795 223.172,194.414 232.210 C 195.117 233.965,196.033 236.377,196.449 237.571 C 199.202 245.467,206.579 252.211,216.117 255.550 L 221.400 257.400 229.200 257.395 L 237.000 257.391 241.400 255.850 C 253.368 251.660,258.243 246.745,263.345 233.727 C 266.468 225.758,266.447 225.792,268.739 224.631 C 272.582 222.683,272.424 222.128,266.328 216.156 C 258.590 208.576,257.712 208.636,249.300 217.318 C 244.565 222.206,244.520 222.372,247.253 224.885 C 249.742 227.174,249.721 227.858,247.026 232.174 C 238.767 245.402,219.926 245.438,211.291 232.243 C 208.674 228.243,208.400 226.980,208.400 218.917 C 208.400 211.114,208.118 209.998,205.952 209.243 C 204.152 208.616,195.303 208.699,193.790 209.358 M294.996 316.800 C 295.418 319.569,298.593 322.052,301.585 321.953 C 302.912 321.909,302.885 321.886,301.161 321.595 C 297.698 321.009,296.288 319.921,295.353 317.113 C 294.828 315.535,294.800 315.511,294.996 316.800 M337.406 318.382 C 337.269 318.813,336.613 319.623,335.948 320.182 C 335.283 320.742,334.914 321.200,335.128 321.200 C 335.606 321.200,338.000 318.521,338.000 317.986 C 338.000 317.335,337.668 317.557,337.406 318.382 M331.105 321.883 C 331.602 321.979,332.322 321.975,332.705 321.875 C 333.087 321.775,332.680 321.696,331.800 321.701 C 330.920 321.705,330.607 321.787,331.105 321.883 M307.203 328.623 C 303.297 330.357,302.800 332.095,302.800 344.009 L 302.800 353.073 300.671 353.549 C 294.752 354.874,292.941 363.423,297.969 366.308 C 298.584 366.661,299.516 367.575,300.039 368.339 C 300.562 369.103,301.485 370.028,302.090 370.396 C 302.694 370.764,303.701 371.770,304.327 372.632 C 304.953 373.495,305.900 374.438,306.432 374.728 C 306.965 375.018,307.887 375.955,308.482 376.809 C 309.971 378.944,311.624 379.701,315.271 379.917 C 321.418 380.282,321.331 380.323,327.664 374.071 C 337.712 364.150,338.133 363.598,338.133 360.353 C 338.133 356.557,335.891 353.933,332.171 353.375 L 330.400 353.109 330.400 343.433 C 330.400 332.501,329.932 330.461,327.059 328.889 C 325.244 327.896,309.320 327.682,307.203 328.623 " stroke="none" fill="#1464c3" fill-rule="evenodd"/><path id="path1" d="M68.223 78.762 C 68.100 78.962,67.639 79.031,67.200 78.916 C 66.735 78.794,66.400 78.904,66.400 79.177 C 66.400 79.436,66.200 79.524,65.956 79.373 C 65.711 79.222,65.126 79.534,64.656 80.068 C 64.185 80.601,63.890 80.841,64.000 80.600 C 64.110 80.359,63.886 80.505,63.502 80.923 C 63.118 81.341,62.894 81.829,63.005 82.008 C 63.115 82.186,62.979 82.407,62.702 82.499 C 62.332 82.623,62.165 84.493,62.068 89.633 C 61.996 93.465,61.771 96.771,61.568 96.980 C 61.366 97.189,61.200 97.619,61.200 97.936 C 61.200 98.253,60.920 98.717,60.578 98.967 C 60.235 99.217,59.903 99.777,59.840 100.211 C 59.776 100.645,59.471 101.008,59.162 101.018 C 58.853 101.028,58.649 101.267,58.710 101.548 C 58.770 101.829,58.635 101.945,58.410 101.806 C 58.184 101.667,57.801 101.676,57.557 101.826 C 57.249 102.017,57.279 102.204,57.657 102.444 C 58.037 102.684,57.869 102.790,57.100 102.794 C 56.495 102.797,56.000 102.991,56.000 103.224 C 56.000 103.457,55.850 103.554,55.666 103.441 C 55.483 103.327,54.144 103.432,52.691 103.672 L 50.049 104.110 49.960 114.155 C 49.845 127.233,49.845 272.768,49.960 285.852 L 50.050 295.903 51.525 296.147 C 52.336 296.281,105.791 296.393,170.313 296.396 C 270.881 296.399,287.820 296.481,288.989 296.969 C 290.163 297.460,290.321 297.461,290.134 296.972 C 290.014 296.660,289.727 296.521,289.496 296.664 C 289.251 296.816,289.195 296.731,289.362 296.461 C 289.567 296.129,289.911 296.196,290.581 296.699 C 291.094 297.085,291.370 297.490,291.195 297.600 C 291.021 297.710,291.605 298.520,292.493 299.400 C 293.382 300.280,293.992 300.787,293.848 300.528 C 293.704 300.268,293.728 299.968,293.900 299.862 C 294.072 299.755,294.426 300.119,294.685 300.669 C 295.075 301.494,295.060 301.632,294.599 301.455 C 293.916 301.193,294.245 302.381,295.034 303.028 C 295.685 303.562,296.028 314.716,295.400 314.951 C 295.150 315.044,295.176 315.288,295.469 315.599 C 295.727 315.873,295.846 316.336,295.734 316.628 C 295.409 317.476,296.861 319.647,297.435 319.171 C 297.781 318.884,297.899 318.973,297.858 319.486 C 297.826 319.879,298.025 320.155,298.300 320.100 C 298.575 320.045,298.800 320.191,298.800 320.424 C 298.800 320.657,298.980 320.736,299.200 320.600 C 299.420 320.464,299.600 320.564,299.600 320.823 C 299.600 321.096,299.935 321.206,300.400 321.084 C 300.839 320.969,301.300 321.038,301.423 321.238 C 301.719 321.716,331.481 321.716,331.777 321.238 C 331.900 321.038,332.361 320.969,332.800 321.084 C 333.265 321.206,333.600 321.096,333.600 320.823 C 333.600 320.564,333.800 320.476,334.044 320.627 C 334.289 320.778,334.874 320.466,335.344 319.932 C 335.815 319.399,336.110 319.159,336.000 319.400 C 335.890 319.641,336.114 319.495,336.498 319.077 C 336.882 318.659,337.106 318.171,336.995 317.992 C 336.885 317.814,337.021 317.593,337.298 317.501 C 337.668 317.377,337.830 315.558,337.915 310.567 C 337.981 306.711,338.219 303.424,338.469 302.927 C 338.709 302.447,338.800 301.778,338.671 301.440 C 338.541 301.102,338.635 300.702,338.879 300.551 C 339.148 300.385,339.211 300.459,339.038 300.738 C 338.881 300.992,338.937 301.200,339.162 301.200 C 339.633 301.200,340.470 299.804,340.176 299.510 C 340.069 299.402,340.300 299.063,340.690 298.757 C 341.350 298.239,341.358 298.255,340.800 298.992 C 340.337 299.604,340.491 299.558,341.478 298.792 C 342.181 298.246,342.766 297.643,342.778 297.451 C 342.790 297.259,342.530 297.326,342.200 297.600 C 341.785 297.944,341.600 297.959,341.600 297.649 C 341.600 297.175,341.629 297.163,343.200 296.981 C 343.750 296.918,345.494 296.651,347.075 296.388 L 349.950 295.911 350.040 285.855 C 350.155 272.766,350.155 127.234,350.040 114.148 L 349.950 104.097 348.475 103.854 C 347.664 103.721,293.756 103.606,228.680 103.600 C 160.456 103.594,110.452 103.440,110.577 103.237 C 110.697 103.043,110.536 102.784,110.218 102.662 C 109.806 102.504,109.714 102.635,109.895 103.120 C 110.108 103.688,110.049 103.718,109.538 103.303 C 109.202 103.030,108.808 102.925,108.663 103.070 C 108.518 103.215,108.400 103.023,108.400 102.643 C 108.400 102.196,108.576 102.059,108.900 102.256 C 109.175 102.422,108.690 101.805,107.821 100.883 C 106.953 99.962,106.137 99.379,106.007 99.588 C 105.878 99.797,105.536 99.589,105.247 99.126 C 104.792 98.399,104.805 98.316,105.340 98.522 C 105.766 98.685,105.890 98.579,105.738 98.182 C 105.616 97.864,105.357 97.703,105.163 97.823 C 104.968 97.943,104.916 97.762,105.047 97.421 C 105.178 97.079,105.096 96.800,104.863 96.800 C 104.300 96.800,104.041 85.258,104.600 85.049 C 104.850 84.956,104.824 84.712,104.531 84.401 C 104.273 84.127,104.154 83.664,104.266 83.372 C 104.591 82.524,103.139 80.353,102.565 80.829 C 102.219 81.116,102.101 81.027,102.142 80.514 C 102.174 80.121,101.975 79.845,101.700 79.900 C 101.425 79.955,101.200 79.809,101.200 79.576 C 101.200 79.343,101.020 79.264,100.800 79.400 C 100.580 79.536,100.400 79.436,100.400 79.177 C 100.400 78.904,100.065 78.794,99.600 78.916 C 99.161 79.031,98.700 78.962,98.577 78.762 C 98.281 78.284,68.519 78.284,68.223 78.762 M346.856 125.964 C 348.964 127.669,348.344 140.385,346.111 141.234 C 343.981 142.044,308.681 141.670,302.800 140.775 C 295.013 139.590,280.094 139.586,272.278 140.766 C 263.760 142.052,194.670 142.055,186.122 140.770 C 178.246 139.585,163.330 139.584,155.600 140.768 C 146.909 142.099,97.039 142.045,92.942 140.700 C 88.903 139.374,77.543 139.379,73.458 140.708 C 70.494 141.672,56.062 142.060,53.889 141.234 C 51.656 140.385,51.036 127.669,53.144 125.964 C 54.629 124.763,345.371 124.763,346.856 125.964 M88.385 142.379 C 91.765 143.031,91.535 140.611,91.384 173.894 C 91.311 190.122,91.419 208.800,91.625 215.400 L 91.999 227.400 93.216 229.800 C 101.008 245.167,120.982 246.494,130.295 232.264 C 132.919 228.254,132.983 226.927,130.645 224.973 C 127.719 222.527,127.892 222.010,133.537 216.365 C 141.115 208.787,141.980 208.750,149.073 215.700 C 155.847 222.337,155.943 222.598,152.300 224.498 C 149.568 225.923,149.474 226.100,144.970 238.177 C 137.858 257.246,107.576 264.102,89.977 250.627 C 80.189 243.133,74.862 230.261,75.149 214.800 C 75.229 210.510,75.287 203.805,75.280 199.900 C 75.251 185.234,75.267 173.382,75.325 166.700 C 75.358 162.905,75.227 157.183,75.034 153.985 C 74.508 145.266,75.065 143.102,78.010 142.409 C 79.877 141.970,86.169 141.952,88.385 142.379 M183.845 144.456 C 189.525 146.424,193.763 149.066,197.672 153.079 C 199.383 154.835,203.200 160.507,203.200 161.294 C 203.200 161.742,207.144 171.927,207.839 173.272 C 208.143 173.862,209.339 174.852,210.496 175.472 C 213.936 177.316,213.768 177.942,208.368 183.415 C 200.704 191.183,199.818 191.201,192.349 183.749 C 186.448 177.861,186.369 177.656,189.000 175.063 C 191.239 172.855,191.257 172.173,189.174 168.594 C 180.826 154.251,161.304 154.206,152.452 168.509 C 150.340 171.923,150.000 173.741,150.000 181.629 C 150.000 190.974,149.801 191.200,141.600 191.200 C 133.421 191.200,132.942 190.645,133.323 181.632 C 133.774 170.949,138.820 157.944,144.676 152.369 C 152.213 145.194,160.080 142.340,171.800 142.529 L 178.600 142.639 183.845 144.456 M299.800 144.178 C 312.988 148.765,319.264 156.263,323.923 173.000 C 324.864 176.381,324.919 177.099,324.821 184.800 C 324.764 189.310,324.722 196.195,324.726 200.100 C 324.745 216.717,324.726 226.976,324.665 232.600 C 324.583 240.157,324.673 240.473,327.411 242.224 C 330.578 244.250,330.487 244.509,324.492 250.459 C 317.060 257.836,316.412 257.835,308.798 250.430 C 303.137 244.925,302.911 244.288,305.905 242.282 C 308.900 240.276,308.731 242.359,308.573 209.400 C 308.495 193.120,308.274 177.970,308.082 175.734 C 306.766 160.405,288.615 152.813,275.095 161.936 C 272.782 163.497,271.694 164.575,270.310 166.678 C 266.893 171.872,267.036 171.314,266.807 180.400 C 266.530 191.359,266.655 191.200,258.327 191.200 C 250.123 191.200,249.827 190.854,250.124 181.600 C 250.632 165.787,259.103 150.730,270.137 146.032 C 279.947 141.854,291.112 141.157,299.800 144.178 M70.950 158.781 C 73.598 159.788,74.239 171.397,71.783 173.854 C 70.447 175.190,54.760 175.343,53.144 174.036 C 51.121 172.400,51.639 159.648,53.764 158.789 C 54.923 158.320,69.719 158.313,70.950 158.781 M134.311 159.023 C 135.522 159.871,135.433 160.832,133.835 164.158 C 133.084 165.721,132.259 168.162,132.002 169.583 C 131.422 172.788,130.701 174.226,129.516 174.544 C 127.955 174.962,96.014 174.836,95.216 174.408 C 92.714 173.070,92.992 159.343,95.535 158.669 C 97.680 158.101,133.461 158.427,134.311 159.023 M251.424 159.365 C 252.101 160.291,251.866 161.434,250.390 164.400 C 249.787 165.610,249.081 167.680,248.821 169.000 C 247.601 175.184,248.675 174.800,232.616 174.800 C 213.656 174.800,210.632 174.016,209.452 168.791 C 209.110 167.277,208.270 164.927,207.585 163.569 C 206.199 160.825,206.237 159.405,207.712 158.803 C 209.703 157.989,250.805 158.518,251.424 159.365 M346.111 158.766 C 347.744 159.387,348.073 160.949,347.930 167.392 C 347.754 175.330,348.512 174.800,337.338 174.800 C 327.091 174.800,327.219 174.855,326.414 170.086 C 326.151 168.521,325.319 165.957,324.567 164.388 C 321.763 158.537,322.004 158.400,335.063 158.400 C 340.610 158.400,345.582 158.565,346.111 158.766 M178.143 162.741 C 184.759 165.929,188.523 171.282,185.483 173.180 C 182.886 174.802,158.820 175.704,156.000 174.285 C 151.663 172.103,157.208 165.328,166.600 161.333 C 169.193 160.231,174.200 160.841,178.143 162.741 M294.635 162.745 C 301.721 166.221,305.944 172.497,302.400 174.284 C 301.166 174.906,274.240 175.024,272.637 174.414 C 268.719 172.924,273.229 166.112,280.465 162.590 C 285.893 159.948,289.003 159.982,294.635 162.745 M70.377 191.855 C 72.648 192.310,73.000 193.403,73.000 200.000 C 73.000 208.755,73.293 208.550,61.110 208.329 C 51.771 208.159,52.241 208.567,52.091 200.490 C 51.972 194.110,52.223 193.017,54.008 192.114 C 55.070 191.577,67.965 191.373,70.377 191.855 M132.736 192.727 C 136.505 194.025,146.667 194.010,150.658 192.700 C 154.114 191.566,190.984 191.283,195.179 192.359 C 197.963 193.073,202.037 193.073,204.821 192.359 C 209.016 191.283,245.886 191.566,249.342 192.700 C 251.717 193.480,252.930 193.600,258.400 193.600 C 263.870 193.600,265.083 193.480,267.458 192.700 C 270.128 191.824,270.646 191.800,287.289 191.800 L 304.377 191.800 305.289 192.711 C 306.697 194.119,306.697 205.881,305.288 207.289 L 304.376 208.200 284.888 208.200 C 269.257 208.200,264.965 208.087,263.200 207.627 C 261.990 207.311,259.830 207.053,258.400 207.053 C 256.970 207.053,254.810 207.311,253.600 207.627 C 249.418 208.717,212.550 208.446,209.058 207.300 C 206.683 206.520,205.470 206.400,200.000 206.400 C 194.530 206.400,193.317 206.520,190.942 207.300 C 187.442 208.449,150.968 208.716,146.800 207.623 C 145.590 207.306,143.340 207.047,141.800 207.047 C 140.260 207.047,138.010 207.306,136.800 207.623 C 135.029 208.088,130.801 208.200,115.112 208.200 L 95.623 208.200 94.712 207.290 C 92.599 205.182,93.301 193.298,95.608 192.101 C 97.534 191.101,129.584 191.641,132.736 192.727 M346.890 192.711 C 348.296 194.119,348.296 205.881,346.890 207.289 C 345.020 209.160,328.961 208.828,327.692 206.892 C 325.747 203.922,326.978 192.345,329.290 191.872 C 332.650 191.186,346.002 191.822,346.890 192.711 M205.952 209.243 C 208.118 209.998,208.400 211.114,208.400 218.917 C 208.400 226.980,208.674 228.243,211.291 232.243 C 219.926 245.438,238.767 245.402,247.026 232.174 C 249.721 227.858,249.742 227.174,247.253 224.885 C 244.520 222.372,244.565 222.206,249.300 217.318 C 257.712 208.636,258.590 208.576,266.328 216.156 C 272.424 222.128,272.582 222.683,268.739 224.631 C 266.447 225.792,266.468 225.758,263.345 233.727 C 258.243 246.745,253.368 251.660,241.400 255.850 L 237.000 257.391 229.200 257.395 L 221.400 257.400 216.117 255.550 C 206.579 252.211,199.202 245.467,196.449 237.571 C 196.033 236.377,195.117 233.965,194.414 232.210 C 190.795 223.172,190.457 210.811,193.790 209.358 C 195.303 208.699,204.152 208.616,205.952 209.243 M72.171 226.135 C 72.832 226.795,73.246 227.904,73.586 229.914 C 73.849 231.479,74.681 234.043,75.433 235.612 C 78.237 241.463,77.996 241.600,64.937 241.600 C 51.234 241.600,51.861 242.038,52.070 232.608 C 52.246 224.670,51.488 225.200,62.662 225.200 C 71.115 225.200,71.250 225.213,72.171 226.135 M124.209 225.745 C 128.205 226.809,128.931 227.850,127.599 230.602 C 125.517 234.903,117.871 239.200,112.299 239.200 C 103.965 239.200,92.222 228.427,97.600 225.716 C 99.060 224.980,121.428 225.004,124.209 225.745 M188.170 225.659 C 189.243 226.148,189.599 226.983,190.577 231.300 C 190.913 232.785,191.745 235.102,192.425 236.450 C 195.104 241.756,195.596 241.644,170.115 241.510 C 145.102 241.379,146.524 241.790,149.621 235.584 C 150.229 234.365,150.948 232.244,151.218 230.870 C 151.826 227.782,152.631 227.071,156.295 226.389 C 157.783 226.112,159.360 225.743,159.800 225.568 C 161.121 225.044,187.002 225.127,188.170 225.659 M241.227 225.839 C 242.422 226.190,243.715 226.758,244.100 227.101 C 247.748 230.348,236.895 239.200,229.266 239.200 C 220.127 239.200,208.215 227.905,214.800 225.484 C 216.390 224.899,239.069 225.204,241.227 225.839 M304.784 225.592 C 306.515 226.518,307.223 236.895,305.684 238.795 C 303.958 240.927,298.316 241.582,281.589 241.592 C 263.326 241.602,263.185 241.557,265.842 236.560 C 266.415 235.482,267.217 233.299,267.623 231.708 C 268.747 227.317,268.657 227.403,273.294 226.282 C 277.757 225.204,303.024 224.650,304.784 225.592 M346.856 225.964 C 348.964 227.669,348.344 240.385,346.111 241.234 C 343.171 242.352,329.369 240.740,327.714 239.086 C 326.218 237.590,326.600 227.763,328.217 226.146 C 329.553 224.810,345.240 224.657,346.856 225.964 M97.200 259.225 C 104.965 260.405,119.891 260.408,127.722 259.230 C 133.011 258.435,134.824 258.400,170.800 258.400 C 206.776 258.400,208.589 258.435,213.878 259.230 C 221.754 260.415,236.670 260.416,244.400 259.232 C 251.579 258.133,305.950 257.945,311.465 259.000 C 315.350 259.743,318.620 259.743,322.000 259.000 C 325.004 258.339,344.491 258.150,346.111 258.766 C 348.344 259.615,348.964 272.331,346.856 274.036 C 345.371 275.237,54.629 275.237,53.144 274.036 C 51.121 272.400,51.639 259.648,53.764 258.789 C 55.735 257.992,91.449 258.350,97.200 259.225 " stroke="none" fill="#94a4ac" fill-rule="evenodd"/><path id="path2" d="M76.274 78.299 C 80.055 78.365,86.355 78.365,90.274 78.299 C 94.193 78.234,91.100 78.180,83.400 78.180 C 75.700 78.180,72.493 78.234,76.274 78.299 M65.208 79.101 C 63.724 79.846,61.970 82.098,62.046 83.159 C 62.084 83.684,62.126 83.674,62.276 83.100 C 62.376 82.715,62.625 82.400,62.829 82.400 C 63.033 82.400,63.179 82.265,63.153 82.100 C 63.029 81.315,63.237 80.776,63.582 80.989 C 63.793 81.119,64.269 80.761,64.642 80.193 C 65.017 79.620,65.560 79.252,65.859 79.367 C 66.157 79.482,66.400 79.380,66.400 79.141 C 66.400 78.902,66.760 78.801,67.200 78.916 C 67.639 79.031,68.100 78.962,68.223 78.762 C 68.603 78.147,66.675 78.363,65.208 79.101 M100.400 79.224 C 100.400 79.457,100.580 79.536,100.800 79.400 C 101.020 79.264,101.200 79.343,101.200 79.576 C 101.200 79.809,101.425 79.955,101.700 79.900 C 101.975 79.845,102.172 80.134,102.137 80.543 C 102.092 81.081,102.195 81.165,102.513 80.847 C 102.830 80.530,103.149 80.712,103.673 81.505 C 104.070 82.107,104.396 82.415,104.397 82.189 C 104.402 81.439,103.167 80.004,101.996 79.398 C 100.622 78.688,100.400 78.663,100.400 79.224 M104.313 83.251 C 104.175 83.609,104.273 84.127,104.531 84.401 C 104.824 84.712,104.850 84.956,104.600 85.049 C 104.089 85.240,104.297 96.052,104.822 96.580 C 105.059 96.819,105.185 94.662,105.160 90.780 C 105.120 84.592,104.821 81.930,104.313 83.251 M61.691 90.400 L 61.758 97.000 61.981 91.000 C 62.104 87.700,62.073 84.730,61.914 84.400 C 61.755 84.070,61.654 86.770,61.691 90.400 M104.999 97.601 C 104.797 97.928,104.834 98.026,105.096 97.864 C 105.327 97.721,105.625 97.888,105.758 98.235 C 106.139 99.229,106.049 99.338,105.336 98.749 C 104.729 98.248,104.719 98.277,105.222 99.084 C 105.525 99.570,105.882 99.792,106.015 99.576 C 106.389 98.970,108.642 101.694,108.472 102.547 C 108.378 103.019,108.487 103.193,108.768 103.020 C 109.013 102.868,109.111 102.579,108.986 102.377 C 108.861 102.175,109.053 102.122,109.413 102.260 C 109.881 102.440,109.931 102.595,109.591 102.806 C 109.249 103.017,109.239 103.177,109.557 103.374 C 109.801 103.524,110.000 103.457,110.000 103.224 C 110.000 102.991,110.191 102.800,110.424 102.800 C 110.657 102.800,110.719 103.008,110.562 103.262 C 110.371 103.571,110.454 103.614,110.812 103.393 C 111.222 103.139,111.120 102.917,110.373 102.439 C 109.134 101.645,107.209 99.733,106.147 98.240 C 105.535 97.379,105.239 97.214,104.999 97.601 M60.568 98.151 C 60.330 98.409,59.818 99.105,59.430 99.698 C 59.042 100.290,57.937 101.296,56.975 101.933 C 56.013 102.571,55.331 103.198,55.460 103.327 C 55.590 103.456,55.949 103.308,56.259 102.998 C 56.569 102.688,57.133 102.533,57.512 102.655 C 58.051 102.828,58.080 102.790,57.646 102.481 C 57.106 102.096,58.324 101.055,59.362 101.014 C 59.561 101.006,59.772 100.669,59.832 100.265 C 59.891 99.861,60.252 99.185,60.634 98.762 C 61.016 98.340,61.255 97.924,61.164 97.838 C 61.074 97.751,60.806 97.892,60.568 98.151 M51.300 103.487 C 51.905 103.578,52.895 103.578,53.500 103.487 C 54.105 103.395,53.610 103.320,52.400 103.320 C 51.190 103.320,50.695 103.395,51.300 103.487 M171.300 103.500 C 204.025 103.556,257.575 103.556,290.300 103.500 C 323.025 103.444,296.250 103.397,230.800 103.397 C 165.350 103.397,138.575 103.444,171.300 103.500 M53.144 125.964 C 51.036 127.669,51.656 140.385,53.889 141.234 C 56.062 142.060,70.494 141.672,73.458 140.708 C 77.543 139.379,88.903 139.374,92.942 140.700 C 97.039 142.045,146.909 142.099,155.600 140.768 C 163.330 139.584,178.246 139.585,186.122 140.770 C 194.670 142.055,263.760 142.052,272.278 140.766 C 280.094 139.586,295.013 139.590,302.800 140.775 C 308.681 141.670,343.981 142.044,346.111 141.234 C 348.344 140.385,348.964 127.669,346.856 125.964 C 345.371 124.763,54.629 124.763,53.144 125.964 M53.764 158.789 C 51.639 159.648,51.121 172.400,53.144 174.036 C 54.760 175.343,70.447 175.190,71.783 173.854 C 74.239 171.397,73.598 159.788,70.950 158.781 C 69.719 158.313,54.923 158.320,53.764 158.789 M95.535 158.669 C 92.992 159.343,92.714 173.070,95.216 174.408 C 96.014 174.836,127.955 174.962,129.516 174.544 C 130.701 174.226,131.422 172.788,132.002 169.583 C 132.259 168.162,133.084 165.721,133.835 164.158 C 136.729 158.133,137.585 158.390,114.811 158.446 C 104.575 158.472,95.901 158.572,95.535 158.669 M207.712 158.803 C 206.237 159.405,206.199 160.825,207.585 163.569 C 208.270 164.927,209.110 167.277,209.452 168.791 C 210.632 174.016,213.656 174.800,232.616 174.800 C 248.675 174.800,247.601 175.184,248.821 169.000 C 249.081 167.680,249.787 165.610,250.390 164.400 C 253.474 158.205,254.916 158.615,229.732 158.520 C 217.803 158.475,208.213 158.598,207.712 158.803 M324.089 159.023 C 322.866 159.880,322.970 161.056,324.567 164.388 C 325.319 165.957,326.151 168.521,326.414 170.086 C 327.219 174.855,327.091 174.800,337.338 174.800 C 348.512 174.800,347.754 175.330,347.930 167.392 C 348.073 160.949,347.744 159.387,346.111 158.766 C 344.315 158.083,325.111 158.307,324.089 159.023 M166.600 161.333 C 157.208 165.328,151.663 172.103,156.000 174.285 C 158.820 175.704,182.886 174.802,185.483 173.180 C 191.756 169.262,174.060 158.160,166.600 161.333 M280.465 162.590 C 273.229 166.112,268.719 172.924,272.637 174.414 C 274.240 175.024,301.166 174.906,302.400 174.284 C 305.944 172.497,301.721 166.221,294.635 162.745 C 289.003 159.982,285.893 159.948,280.465 162.590 M54.008 192.114 C 52.223 193.017,51.972 194.110,52.091 200.490 C 52.241 208.567,51.771 208.159,61.110 208.329 C 73.293 208.550,73.000 208.755,73.000 200.000 C 73.000 193.403,72.648 192.310,70.377 191.855 C 67.965 191.373,55.070 191.577,54.008 192.114 M95.608 192.101 C 93.301 193.298,92.599 205.182,94.712 207.290 L 95.623 208.200 115.112 208.200 C 130.801 208.200,135.029 208.088,136.800 207.623 C 138.010 207.306,140.260 207.047,141.800 207.047 C 143.340 207.047,145.590 207.306,146.800 207.623 C 150.968 208.716,187.442 208.449,190.942 207.300 C 193.317 206.520,194.530 206.400,200.000 206.400 C 205.470 206.400,206.683 206.520,209.058 207.300 C 212.550 208.446,249.418 208.717,253.600 207.627 C 254.810 207.311,256.970 207.053,258.400 207.053 C 259.830 207.053,261.990 207.311,263.200 207.627 C 264.965 208.087,269.257 208.200,284.888 208.200 L 304.376 208.200 305.288 207.289 C 306.697 205.881,306.697 194.119,305.289 192.711 L 304.377 191.800 287.289 191.800 C 270.646 191.800,270.128 191.824,267.458 192.700 C 265.083 193.480,263.870 193.600,258.400 193.600 C 252.930 193.600,251.717 193.480,249.342 192.700 C 245.886 191.566,209.016 191.283,204.821 192.359 C 202.037 193.073,197.963 193.073,195.179 192.359 C 190.984 191.283,154.114 191.566,150.658 192.700 C 146.667 194.010,136.505 194.025,132.736 192.727 C 129.584 191.641,97.534 191.101,95.608 192.101 M329.290 191.872 C 326.978 192.345,325.747 203.922,327.692 206.892 C 328.961 208.828,345.020 209.160,346.890 207.289 C 348.296 205.881,348.296 194.119,346.890 192.711 C 346.002 191.822,332.650 191.186,329.290 191.872 M53.144 225.964 C 52.242 226.694,52.194 226.987,52.070 232.608 C 51.861 242.038,51.234 241.600,64.937 241.600 C 77.996 241.600,78.237 241.463,75.433 235.612 C 74.681 234.043,73.849 231.479,73.586 229.914 C 72.781 225.145,72.909 225.200,62.662 225.200 C 54.821 225.200,54.008 225.265,53.144 225.964 M97.600 225.716 C 92.222 228.427,103.965 239.200,112.299 239.200 C 120.659 239.200,131.895 229.825,127.113 226.839 C 124.488 225.199,100.440 224.284,97.600 225.716 M159.800 225.568 C 159.360 225.743,157.783 226.112,156.295 226.389 C 152.631 227.071,151.826 227.782,151.218 230.870 C 150.948 232.244,150.229 234.365,149.621 235.584 C 146.524 241.790,145.102 241.379,170.115 241.510 C 195.596 241.644,195.104 241.756,192.425 236.450 C 191.745 235.102,190.913 232.785,190.577 231.300 C 189.599 226.983,189.243 226.148,188.170 225.659 C 187.002 225.127,161.121 225.044,159.800 225.568 M214.800 225.484 C 211.828 226.576,213.130 231.162,217.383 234.583 C 225.080 240.776,234.781 240.414,241.731 233.673 C 246.041 229.493,245.894 227.212,241.227 225.839 C 239.069 225.204,216.390 224.899,214.800 225.484 M273.294 226.282 C 268.657 227.403,268.747 227.317,267.623 231.708 C 267.217 233.299,266.415 235.482,265.842 236.560 C 263.185 241.557,263.326 241.602,281.589 241.592 C 298.316 241.582,303.958 240.927,305.684 238.795 C 307.223 236.895,306.515 226.518,304.784 225.592 C 303.024 224.650,277.757 225.204,273.294 226.282 M328.217 226.146 C 326.600 227.763,326.218 237.590,327.714 239.086 C 329.369 240.740,343.171 242.352,346.111 241.234 C 348.344 240.385,348.964 227.669,346.856 225.964 C 345.240 224.657,329.553 224.810,328.217 226.146 M53.764 258.789 C 51.639 259.648,51.121 272.400,53.144 274.036 C 54.629 275.237,345.371 275.237,346.856 274.036 C 348.964 272.331,348.344 259.615,346.111 258.766 C 344.491 258.150,325.004 258.339,322.000 259.000 C 318.620 259.743,315.350 259.743,311.465 259.000 C 305.950 257.945,251.579 258.133,244.400 259.232 C 236.670 260.416,221.754 260.415,213.878 259.230 C 208.589 258.435,206.776 258.400,170.800 258.400 C 134.824 258.400,133.011 258.435,127.722 259.230 C 119.891 260.408,104.965 260.405,97.200 259.225 C 91.449 258.350,55.735 257.992,53.764 258.789 M289.225 296.570 C 288.866 297.003,289.069 297.301,290.198 297.999 C 290.983 298.484,292.271 299.718,293.060 300.740 C 294.090 302.074,294.409 302.318,294.190 301.603 C 293.921 300.725,293.960 300.669,294.518 301.132 C 295.085 301.602,295.102 301.552,294.683 300.663 C 294.424 300.116,294.072 299.755,293.900 299.862 C 293.728 299.968,293.704 300.268,293.848 300.528 C 293.992 300.787,293.382 300.280,292.493 299.400 C 291.605 298.520,291.021 297.710,291.195 297.600 C 291.370 297.490,291.101 297.090,290.596 296.711 C 289.828 296.134,289.606 296.111,289.225 296.570 M109.700 296.700 C 142.425 296.756,195.975 296.756,228.700 296.700 C 261.425 296.644,234.650 296.597,169.200 296.597 C 103.750 296.597,76.975 296.644,109.700 296.700 M290.667 297.466 C 290.355 297.778,289.213 297.102,289.438 296.739 C 289.577 296.514,289.903 296.554,290.245 296.838 C 290.561 297.100,290.751 297.383,290.667 297.466 M346.307 296.690 C 347.026 296.779,348.106 296.777,348.707 296.686 C 349.308 296.595,348.720 296.522,347.400 296.524 C 346.080 296.526,345.588 296.601,346.307 296.690 M341.995 297.203 C 341.754 297.352,341.612 297.719,341.679 298.018 C 341.745 298.318,341.620 298.575,341.400 298.588 C 340.720 298.629,339.976 299.238,340.188 299.581 C 340.299 299.760,340.032 300.361,339.595 300.916 C 339.158 301.472,338.800 302.046,338.800 302.192 C 338.800 302.575,339.738 301.576,340.564 300.313 C 340.955 299.715,342.054 298.710,343.006 298.079 C 344.710 296.950,344.719 296.933,343.584 296.933 C 342.950 296.933,342.235 297.055,341.995 297.203 M294.800 308.870 C 294.800 315.021,295.078 317.645,295.634 316.746 C 295.814 316.454,295.745 315.973,295.477 315.648 C 295.181 315.289,295.152 315.019,295.400 314.936 C 295.912 314.764,295.703 303.948,295.178 303.420 C 294.941 303.181,294.800 305.208,294.800 308.870 M337.921 309.100 C 337.854 312.345,337.930 315.270,338.088 315.600 C 338.246 315.930,338.381 313.275,338.388 309.700 C 338.403 301.584,338.083 301.172,337.921 309.100 M337.632 316.900 C 337.614 317.285,337.420 317.600,337.200 317.600 C 336.980 317.600,336.821 317.735,336.847 317.900 C 336.971 318.685,336.763 319.224,336.418 319.011 C 336.207 318.881,335.731 319.239,335.358 319.807 C 334.983 320.380,334.440 320.748,334.141 320.633 C 333.843 320.518,333.600 320.620,333.600 320.859 C 333.600 321.098,333.240 321.199,332.800 321.084 C 332.361 320.969,331.883 321.066,331.738 321.300 C 331.308 321.996,334.452 321.317,335.591 320.469 C 336.836 319.541,338.140 317.383,337.866 316.704 C 337.743 316.398,337.651 316.476,337.632 316.900 M295.603 317.811 C 295.598 318.561,296.833 319.996,298.004 320.602 C 299.378 321.312,299.600 321.337,299.600 320.776 C 299.600 320.543,299.420 320.464,299.200 320.600 C 298.980 320.736,298.800 320.657,298.800 320.424 C 298.800 320.191,298.575 320.045,298.300 320.100 C 298.025 320.155,297.828 319.866,297.863 319.457 C 297.908 318.919,297.805 318.835,297.487 319.153 C 297.170 319.470,296.851 319.288,296.327 318.495 C 295.930 317.893,295.604 317.585,295.603 317.811 M309.474 321.899 C 313.255 321.965,319.555 321.965,323.474 321.899 C 327.393 321.834,324.300 321.780,316.600 321.780 C 308.900 321.780,305.693 321.834,309.474 321.899 " stroke="none" fill="#b4bcc4" fill-rule="evenodd"/></g></svg>